<svg id="Layer_1" data-name="Layer 1" xmlns="http://www.w3.org/2000/svg" width="50" height="42" viewBox="0 0 50 42">
  <g>
    <g>
      <rect x="2.31" y="37.7" width="0.2" height="0.2" transform="translate(-26.01 12.77) rotate(-44.98)"/>
      <path d="M21.2,34.53A3.78,3.78,0,0,0,20.91,36,3.66,3.66,0,0,0,21,37H0V34.53Z"/>
      <path d="M50,34.53V37H28.78a3.66,3.66,0,0,0,.13-1,3.78,3.78,0,0,0-.29-1.47Z"/>
      <path d="M30.72,34.53a6,6,0,0,0-11.62,0A5.71,5.71,0,0,0,19,37a6,6,0,0,0,11.82,0,5.71,5.71,0,0,0-.1-2.47ZM24.91,40A4,4,0,0,1,21,37a3.66,3.66,0,0,1-.13-1,3.78,3.78,0,0,1,.29-1.47,4,4,0,0,1,7.42,0A3.78,3.78,0,0,1,28.91,36a3.66,3.66,0,0,1-.13,1A4,4,0,0,1,24.91,40Z"/>
    </g>
    <g>
      <path d="M5.2,4.53A3.78,3.78,0,0,0,4.91,6,3.66,3.66,0,0,0,5,7H0V4.53Z"/>
      <path d="M50,4.53V7H12.78a3.66,3.66,0,0,0,.13-1,3.78,3.78,0,0,0-.29-1.47Z"/>
      <path d="M14.72,4.53a6,6,0,0,0-11.62,0A5.71,5.71,0,0,0,3,7,6,6,0,0,0,14.82,7a5.71,5.71,0,0,0-.1-2.47ZM8.91,10A4,4,0,0,1,5,7a3.66,3.66,0,0,1-.13-1A3.78,3.78,0,0,1,5.2,4.53a4,4,0,0,1,7.42,0A3.78,3.78,0,0,1,12.91,6a3.66,3.66,0,0,1-.13,1A4,4,0,0,1,8.91,10Z"/>
    </g>
    <g>
      <path d="M37.2,19.53A3.78,3.78,0,0,0,36.91,21,3.66,3.66,0,0,0,37,22H0V19.53Z"/>
      <path d="M50,19.53V22H44.78a3.66,3.66,0,0,0,.13-1,3.78,3.78,0,0,0-.29-1.47Z"/>
      <path d="M46.72,19.53a6,6,0,0,0-11.62,0A5.71,5.71,0,0,0,35,22a6,6,0,0,0,11.82,0,5.71,5.71,0,0,0-.1-2.47ZM40.91,25A4,4,0,0,1,37,22a3.66,3.66,0,0,1-.13-1,3.78,3.78,0,0,1,.29-1.47,4,4,0,0,1,7.42,0A3.78,3.78,0,0,1,44.91,21a3.66,3.66,0,0,1-.13,1A4,4,0,0,1,40.91,25Z"/>
    </g>
  </g>
</svg>
