<?xml version="1.0" encoding="utf-8"?>
<!-- Generator: Adobe Illustrator 25.2.0, SVG Export Plug-In . SVG Version: 6.00 Build 0)  -->
<svg version="1.1" id="Layer_1" xmlns="http://www.w3.org/2000/svg" xmlns:xlink="http://www.w3.org/1999/xlink" x="0px" y="0px"
	 viewBox="0 0 200 200" style="enable-background:new 0 0 200 200;" xml:space="preserve">
<style type="text/css">
	.st0{fill-rule:evenodd;clip-rule:evenodd;}
</style>
<g>
	<path class="st0" d="M100,0C72.8,0,69.4,0.1,58.8,0.6C48.1,1.1,40.9,2.8,34.5,5.2c-6.7,2.5-12.7,6.4-17.7,11.5
		c-5.1,5-9,11-11.5,17.7c-2.5,6.4-4.2,13.6-4.6,24.3C0.1,69.4,0,72.8,0,100s0.1,30.6,0.6,41.2c0.5,10.6,2.2,17.9,4.6,24.3
		c2.5,6.7,6.4,12.7,11.5,17.7c5.6,5.6,11.1,9,17.7,11.5c6.4,2.5,13.6,4.2,24.3,4.7c10.7,0.5,14.1,0.6,41.2,0.6s30.6-0.1,41.2-0.6
		c10.6-0.5,17.9-2.2,24.3-4.7c6.7-2.5,12.7-6.4,17.7-11.5c5.6-5.6,9-11.1,11.5-17.7c2.5-6.4,4.2-13.6,4.7-24.3
		c0.5-10.7,0.6-14.1,0.6-41.2s-0.1-30.6-0.6-41.2c-0.5-10.6-2.2-17.9-4.7-24.3c-2.5-6.7-6.4-12.7-11.5-17.7c-5-5.1-11-9-17.7-11.5
		c-6.4-2.5-13.6-4.2-24.3-4.6C130.6,0.1,127.2,0,100,0z M100,18c26.7,0,29.9,0.1,40.4,0.6c9.7,0.4,15,2.1,18.6,3.4
		c4.7,1.8,8,4,11.5,7.5c3.5,3.5,5.7,6.8,7.5,11.5c1.4,3.5,3,8.8,3.4,18.6c0.5,10.5,0.6,13.7,0.6,40.4s-0.1,29.9-0.6,40.4
		c-0.4,9.7-2.1,15-3.4,18.6c-1.6,4.3-4.2,8.3-7.5,11.5c-3.5,3.5-6.8,5.7-11.5,7.5c-3.5,1.4-8.8,3-18.6,3.4
		c-10.5,0.5-13.7,0.6-40.4,0.6s-29.9-0.1-40.4-0.6c-9.8-0.4-15-2.1-18.6-3.4c-4.3-1.6-8.3-4.2-11.5-7.5c-3.3-3.2-5.9-7.2-7.5-11.5
		c-1.4-3.5-3-8.8-3.4-18.6C18.1,129.9,18,126.7,18,100s0.1-29.9,0.6-40.4c0.4-9.8,2.1-15,3.4-18.6c1.8-4.7,4-8,7.5-11.5
		C33,26,36.4,23.9,41,22c3.5-1.4,8.8-3,18.6-3.4C70.1,18.1,73.3,18,100,18z"/>
	<path class="st0" d="M100,133.4c-18.4,0-33.4-14.9-33.4-33.4c0-18.4,14.9-33.4,33.4-33.4c0,0,0,0,0,0c18.4,0,33.4,14.9,33.4,33.4
		C133.4,118.4,118.4,133.4,100,133.4z M100,48.6c-28.4,0-51.4,23-51.4,51.4c0,28.4,23,51.4,51.4,51.4c0,0,0,0,0,0
		c28.4,0,51.4-23,51.4-51.4C151.4,71.6,128.4,48.6,100,48.6z M166.4,47.7c0,6.7-5.4,12.2-12.2,12.2s-12.1-5.4-12.1-12.2
		s5.4-12.1,12.1-12.1S166.4,41,166.4,47.7"/>
</g>
</svg>
