<svg id="Layer_1" data-name="Layer 1" xmlns="http://www.w3.org/2000/svg" width="50" height="50" viewBox="0 0 50 50">
  <g>
    <rect x="2.31" y="45.7" width="0.2" height="0.2" transform="translate(-31.67 15.11) rotate(-44.98)"/>
    <path d="M21.2,41.76a9.54,9.54,0,0,0-.29,2.39A9.29,9.29,0,0,0,21,45.76H0v-4Z"/>
    <path d="M50,41.76v4H28.78a9.29,9.29,0,0,0,.13-1.61,9.54,9.54,0,0,0-.29-2.39Z"/>
    <path d="M30.72,42.53a6,6,0,0,0-11.62,0A5.71,5.71,0,0,0,19,45a6,6,0,0,0,11.82,0,5.71,5.71,0,0,0-.1-2.47ZM24.91,48A4,4,0,0,1,21,45a3.66,3.66,0,0,1-.13-1,3.78,3.78,0,0,1,.29-1.47,4,4,0,0,1,7.42,0A3.78,3.78,0,0,1,28.91,44a3.66,3.66,0,0,1-.13,1A4,4,0,0,1,24.91,48Z"/>
  </g>
  <g>
    <path d="M5.2,3.76a9.54,9.54,0,0,0-.29,2.39A9.29,9.29,0,0,0,5,7.76H0v-4Z"/>
    <path d="M50,3.76v4H12.78a9.29,9.29,0,0,0,.13-1.61,9.54,9.54,0,0,0-.29-2.39Z"/>
    <path d="M14.72,4.53a6,6,0,0,0-11.62,0A5.71,5.71,0,0,0,3,7,6,6,0,0,0,14.82,7a5.71,5.71,0,0,0-.1-2.47ZM8.91,10A4,4,0,0,1,5,7a3.66,3.66,0,0,1-.13-1A3.78,3.78,0,0,1,5.2,4.53a4,4,0,0,1,7.42,0A3.78,3.78,0,0,1,12.91,6a3.66,3.66,0,0,1-.13,1A4,4,0,0,1,8.91,10Z"/>
  </g>
  <g>
    <path d="M37.2,22.76a9.54,9.54,0,0,0-.29,2.39A9.29,9.29,0,0,0,37,26.76H0v-4Z"/>
    <path d="M50,22.76v4H44.78a9.29,9.29,0,0,0,.13-1.61,9.54,9.54,0,0,0-.29-2.39Z"/>
    <path d="M46.72,23.53a6,6,0,0,0-11.62,0A5.71,5.71,0,0,0,35,26a6,6,0,0,0,11.82,0,5.71,5.71,0,0,0-.1-2.47ZM40.91,29A4,4,0,0,1,37,26a3.66,3.66,0,0,1-.13-1,3.78,3.78,0,0,1,.29-1.47,4,4,0,0,1,7.42,0A3.78,3.78,0,0,1,44.91,25a3.66,3.66,0,0,1-.13,1A4,4,0,0,1,40.91,29Z"/>
  </g>
</svg>
